<svg width="891" height="976" viewBox="0 0 891 976" fill="none" xmlns="http://www.w3.org/2000/svg">
<path d="M414.405 777.217V792.546C414.405 796.815 417.865 800.275 422.134 800.275H502.519" stroke="#929292" stroke-width="4.83029"/>
<path d="M531.856 810.351V856.05C531.856 860.319 535.316 863.779 539.585 863.779H721.652C725.92 863.779 729.38 860.319 729.38 856.05V518.018C729.38 513.749 725.92 510.289 721.652 510.289H710.784" stroke="#929292" stroke-width="4.83029"/>
<path d="M543.919 815.026V847.004C543.919 851.272 547.379 854.732 551.647 854.732H714.955C719.223 854.732 722.684 851.272 722.684 847.004V528.951" stroke="#929292" stroke-width="4.83029"/>
<path fill-rule="evenodd" clip-rule="evenodd" d="M235.291 933.296V811.776H243.493V932.603L235.291 933.296Z" fill="#929292"/>
<path fill-rule="evenodd" clip-rule="evenodd" d="M728.082 501.949H725.653V493.747H728.082C735.783 493.747 742.026 499.989 742.026 507.69V901.529C742.026 909.23 735.783 915.473 728.082 915.473H261.692C258.521 915.473 255.95 918.044 255.95 921.214V929.455L247.748 931.47L247.748 921.214C247.748 913.514 253.991 907.271 261.692 907.271H728.082C731.253 907.271 733.824 904.7 733.824 901.529V507.69C733.824 504.519 731.253 501.949 728.082 501.949Z" fill="#929292"/>
<path fill-rule="evenodd" clip-rule="evenodd" d="M332.864 891.338V536.583H341.066V891.338C341.066 894.509 343.636 897.079 346.807 897.079H433.053C440.754 897.079 446.997 903.322 446.997 911.023L446.997 921.829L438.795 921.672L438.795 911.023C438.795 907.852 436.224 905.281 433.053 905.281H346.807C339.106 905.281 332.864 899.038 332.864 891.338Z" fill="#929292"/>
<path d="M357.82 536.08V872.132C357.82 876.401 361.28 879.861 365.548 879.861H512.068C516.336 879.861 519.796 876.401 519.796 872.132V813.813M581.114 813.813L581.112 878.468C581.112 882.737 577.652 886.197 573.384 886.197H359.249C354.981 886.197 351.521 882.737 351.521 878.468L351.522 536.08" stroke="#929292" stroke-width="4.83029"/>
<path d="M650.471 814.523V884.861C650.471 889.129 647.011 892.589 642.742 892.589H352.965C348.697 892.589 345.237 889.129 345.237 884.861V536.08" stroke="#929292" stroke-width="4.83029"/>
<path d="M869.363 767.433V757.285L826.613 742.603L814.306 749.728L769.18 729.432V741.307L793.731 750M869.363 767.433V770.239V841.287M869.363 767.433L834.063 755.309M869.363 767.433L880.575 770.239M889.875 760.523C889.875 756.723 886.708 753.758 885.125 752.751L769.18 718.02V769.538M889.875 760.523C889.875 764.323 889.875 824.434 889.875 854.014C887.788 858.404 882.707 866.925 879.08 865.889M889.875 760.523L880.575 770.239M879.08 865.889C875.452 864.853 871.091 860.851 869.363 858.98V851.24M879.08 865.889L880.575 770.239M869.363 851.24L867.076 850.379L821.736 833.956L813.346 839.847L777.385 826.766M869.363 851.24V841.287M769.18 752.751L779.125 755.908L792.546 750.648L793.731 750M793.731 750L814.306 757.285L819.668 755.309M777.385 826.766L769.18 823.782V805.064M777.385 826.766L788.739 821.874M819.668 808.547V755.309M819.668 808.547L788.739 821.874M819.668 808.547H833.599M819.668 755.309L826.613 752.751L834.063 755.309M769.18 769.538L779.125 772.603M769.18 769.538V805.064M779.125 772.603L788.739 769.538L787.764 805.064L778.43 808.547M779.125 772.603L778.43 808.547M778.43 808.547L769.18 805.064M788.739 821.874L814.306 830.141L824.126 823.782L834.063 827.627M869.363 841.287L834.063 827.627M833.599 808.547L834.063 755.309M833.599 808.547L834.063 827.627" stroke="#929292" stroke-width="0.966057"/>
<path d="M769.18 170.659H769.312M816.473 170.659H769.312M816.473 170.659V168.281M816.473 170.659V229.18M816.473 162.072L769.312 160.338M816.473 162.072V168.281M816.473 162.072L817.794 158.769L864.294 160.354M769.312 160.338V170.659M769.312 160.338V153.881L877.24 158.769L881.335 164.846M769.312 170.659V193.248M769.312 244.768V252.826H815.152M769.312 244.768L783.326 244.445M769.312 244.768V226.934M815.152 243.711L817.794 239.484M815.152 243.711V252.826M815.152 243.711L783.326 244.445M817.794 239.484H826.38M817.794 239.484L818.851 249.128M826.38 239.484L864.984 240.273M826.38 239.484V229.18M826.38 168.281H816.473M826.38 168.281L864.383 170.659M826.38 168.281V229.18M864.294 160.354L867.2 165.639C867.592 166.137 867.943 166.558 868.328 166.908M864.294 160.354L864.383 170.659M881.335 164.846C880.851 165.991 877.795 168.281 873.673 168.281C870.662 168.281 869.371 167.858 868.328 166.908M881.335 164.846C882.04 195.142 883.396 256.182 883.185 257.978C882.92 260.224 874.73 259.564 871.163 259.3C869.952 259.21 868.825 258.324 867.865 257.159M815.152 252.826L818.851 249.128M818.851 249.128L865.086 252.166M865.086 252.166C865.568 253.484 866.563 255.578 867.865 257.159M865.086 252.166L864.984 240.273M868.328 166.908L867.865 257.159M864.383 170.659L864.984 240.273M816.473 229.18H826.38M816.473 229.18H805.112L783.326 244.445M769.312 193.248H780.277M769.312 193.248V226.934M780.277 193.248L785.296 189.946V223.896L780.277 226.934M780.277 193.248V226.934M780.277 226.934H769.312" stroke="#929292" stroke-width="0.966057"/>
<path d="M279.569 903.987C279.569 911.944 274.293 919.226 265.597 924.544C256.909 929.856 244.876 933.158 231.56 933.158C218.243 933.158 206.21 929.856 197.523 924.544C188.827 919.226 183.551 911.944 183.551 903.987C183.551 903.236 183.598 902.492 183.69 901.756C184.62 894.31 190.186 887.58 198.771 882.694C207.346 877.814 218.871 874.816 231.56 874.816C244.876 874.816 256.909 878.118 265.597 883.431C274.293 888.749 279.569 896.03 279.569 903.987Z" stroke="#929292" stroke-width="0.966057"/>
<path fill-rule="evenodd" clip-rule="evenodd" d="M183.21 901.696C183.273 901.195 183.356 900.697 183.459 900.203C186.497 885.613 206.875 874.333 231.56 874.333C257.709 874.333 279.025 886.991 280.016 902.834C280.039 903.217 280.052 903.601 280.052 903.987C280.052 920.365 258.341 933.641 231.56 933.641C204.778 933.641 183.068 920.365 183.068 903.987C183.068 903.216 183.116 902.452 183.21 901.696ZM278.928 900.73C277.705 894.203 272.843 888.257 265.421 883.718C256.794 878.443 244.824 875.153 231.56 875.153C218.92 875.153 207.455 878.14 198.938 882.987C192.072 886.894 187.191 891.965 185.07 897.6C190.713 889.663 204.939 878.902 231.56 878.902C259.465 878.902 273.819 891.928 278.928 900.73ZM184.239 900.482C188.291 892.865 202.248 879.722 231.56 879.722C261.338 879.722 275.362 894.685 279.206 903.034C279.223 903.351 279.231 903.669 279.231 903.987C279.231 911.782 274.061 918.972 265.421 924.256C256.794 929.531 244.824 932.821 231.56 932.821C218.295 932.821 206.325 929.531 197.699 924.256C189.058 918.972 183.888 911.782 183.888 903.987C183.888 903.25 183.934 902.52 184.024 901.798C184.079 901.357 184.151 900.918 184.239 900.482Z" fill="#929292"/>
<path fill-rule="evenodd" clip-rule="evenodd" d="M163.366 854.941V794.922H171.568V854.941C171.568 858.112 174.139 860.683 177.31 860.683H214.922C222.623 860.683 228.865 866.926 228.865 874.626V932.825L220.663 932.572V874.626C220.663 871.456 218.093 868.885 214.922 868.885H177.31C169.609 868.885 163.366 862.642 163.366 854.941Z" fill="#929292"/>
<path d="M452.856 917.739C452.856 918.791 451.991 919.873 450.294 920.721C448.627 921.555 446.29 922.084 443.682 922.084C441.074 922.084 438.737 921.555 437.07 920.721C435.374 919.873 434.509 918.791 434.509 917.739C434.509 916.687 435.374 915.605 437.07 914.757C438.737 913.923 441.074 913.394 443.682 913.394C446.29 913.394 448.627 913.923 450.294 914.757C451.991 915.605 452.856 916.687 452.856 917.739Z" stroke="#929292" stroke-width="0.966057"/>
<path d="M452.856 917.739C452.856 918.791 451.991 919.873 450.294 920.721C448.627 921.555 446.29 922.084 443.682 922.084C441.074 922.084 438.737 921.555 437.07 920.721C435.374 919.873 434.509 918.791 434.509 917.739C434.509 916.687 435.374 915.605 437.07 914.757C438.737 913.923 441.074 913.394 443.682 913.394C446.29 913.394 448.627 913.923 450.294 914.757C451.991 915.605 452.856 916.687 452.856 917.739Z" stroke="#929292" stroke-width="0.966057"/>
<path d="M448.287 916.755C449.7 917.051 450.589 917.863 450.846 918.644C450.971 919.027 450.952 919.41 450.775 919.763C450.595 920.12 450.232 920.489 449.597 920.788C447.992 921.544 445.93 922.084 443.682 922.084C440.995 922.084 438.6 921.553 436.927 920.692C436.39 920.416 436.1 920.071 435.969 919.73C435.837 919.388 435.844 918.998 435.994 918.598C436.297 917.786 437.173 916.981 438.404 916.699C439.718 916.398 441.289 916.171 443.042 916.171C444.897 916.171 446.713 916.425 448.287 916.755Z" stroke="#929292" stroke-width="0.966057"/>
<path d="M18.9725 45.8367V45.8367C9.11553 45.8367 1.12488 53.8274 1.12488 63.6844V951.429C1.12488 964.234 11.5053 974.614 24.3102 974.614H745.994C758.799 974.614 769.18 964.234 769.18 951.429V55.8244C769.18 50.3084 764.708 45.8367 759.192 45.8367V45.8367M18.9725 45.8367L67.8516 6.2064C71.9815 2.85796 77.1367 1.03064 82.4535 1.03064H709.356C716.028 1.03064 722.377 3.90509 726.779 8.91905L759.192 45.8367M18.9725 45.8367H759.192" stroke="#929292" stroke-width="0.966057"/>
<path d="M20.3685 87.6736C20.3685 77.2696 28.8026 68.8354 39.2066 68.8354H47.0636H717.757H731.098C741.502 68.8354 749.936 77.2695 749.936 87.6735V941.286C749.936 951.69 741.502 960.124 731.098 960.124H36.3183C27.5095 960.124 20.3685 952.983 20.3685 944.175V87.6736Z" stroke="#929292" stroke-width="0.966057"/>
<rect x="43.1633" y="132.114" width="683.686" height="404.09" rx="7.24543" fill="white" stroke="#929292" stroke-width="0.966057"/>
<circle cx="55.1624" cy="144.876" r="5.03359" fill="white" stroke="#929292" stroke-width="0.966057"/>
<circle cx="715.319" cy="144.876" r="5.03359" fill="white" stroke="#929292" stroke-width="0.966057"/>
<circle cx="55.1624" cy="519.996" r="5.03359" fill="white" stroke="#929292" stroke-width="0.966057"/>
<circle cx="715.319" cy="519.996" r="5.03359" fill="white" stroke="#929292" stroke-width="0.966057"/>
<rect x="102.376" y="182.209" width="585.298" height="304.15" rx="7.24543" fill="white" stroke="#929292" stroke-width="0.966057"/>
<path d="M797.341 534.279L769.663 541.983V482.036L797.341 486.555V534.279Z" fill="white" stroke="#929292" stroke-width="0.966057"/>
<path d="M776.572 519.81V499.826L783.349 501.312C787.406 502.201 790.297 505.794 790.297 509.947C790.297 514.225 787.234 517.889 783.024 518.647L776.572 519.81Z" fill="white" stroke="#929292" stroke-width="0.966057"/>
<path d="M81.7213 599.83C81.7213 595.754 85.0252 592.45 89.1009 592.45H325.975C328.666 592.45 330.849 594.632 330.849 597.324V804.276C330.849 808.545 327.388 812.005 323.12 812.005H89.4498C85.1814 812.005 81.7213 808.545 81.7213 804.276V599.83Z" fill="white"/>
<path d="M89.1009 592.45V592.45C85.0252 592.45 81.7213 595.754 81.7213 599.83V804.276C81.7213 808.545 85.1814 812.005 89.4498 812.005H323.12C327.388 812.005 330.849 808.545 330.849 804.276V597.324C330.849 594.632 328.666 592.45 325.975 592.45V592.45M89.1009 592.45L95.9648 586.806C97.3478 585.669 99.0828 585.047 100.873 585.047H313.964C315.71 585.047 317.406 585.639 318.773 586.726L325.975 592.45M89.1009 592.45H325.975" stroke="#929292" stroke-width="0.966057"/>
<rect x="113.197" y="621.414" width="189.023" height="127.862" rx="3.3812" stroke="#929292" stroke-width="0.966057"/>
<rect x="113.197" y="772.798" width="189.023" height="23.2779" rx="3.3812" stroke="#929292" stroke-width="0.966057"/>
<rect x="116.908" y="778.14" width="26.3373" height="12.9191" rx="3.3812" stroke="#929292" stroke-width="0.966057"/>
<rect x="168.814" y="778.14" width="26.3373" height="12.9191" rx="3.3812" stroke="#929292" stroke-width="0.966057"/>
<rect x="220.72" y="778.14" width="26.3373" height="12.9191" rx="3.3812" stroke="#929292" stroke-width="0.966057"/>
<rect x="272.625" y="778.14" width="26.3373" height="12.9191" rx="3.3812" stroke="#929292" stroke-width="0.966057"/>
<g clip-path="url(#clip0_0_4)">
<path d="M125.87 784.136H125.636L125.801 784.3L127.417 785.916L127.417 785.916L127.419 785.919C127.47 785.966 127.511 786.023 127.54 786.087C127.568 786.151 127.583 786.219 127.584 786.289C127.586 786.359 127.573 786.428 127.547 786.492C127.521 786.557 127.482 786.615 127.433 786.665C127.383 786.714 127.325 786.753 127.26 786.779C127.196 786.805 127.126 786.818 127.057 786.817C126.987 786.815 126.919 786.8 126.855 786.772C126.791 786.743 126.734 786.703 126.687 786.652L126.687 786.652L126.684 786.649L124.019 783.983L123.652 783.617L124.019 783.251L126.683 780.586C126.781 780.495 126.911 780.446 127.044 780.448C127.179 780.451 127.307 780.505 127.402 780.6C127.497 780.695 127.551 780.823 127.554 780.958C127.556 781.091 127.507 781.221 127.416 781.319L125.801 782.934L125.636 783.098H125.87H133.973C134.655 783.098 135.308 783.369 135.79 783.851C136.272 784.333 136.542 784.986 136.542 785.668C136.542 786.349 136.272 787.002 135.79 787.484C135.308 787.966 134.655 788.237 133.973 788.237H132.333C132.195 788.237 132.063 788.182 131.966 788.085C131.869 787.988 131.814 787.856 131.814 787.718C131.814 787.581 131.869 787.449 131.966 787.351C132.063 787.254 132.195 787.2 132.333 787.2H133.973C134.38 787.2 134.769 787.038 135.057 786.751C135.344 786.464 135.505 786.074 135.505 785.668C135.505 785.261 135.344 784.872 135.057 784.584C134.769 784.297 134.38 784.136 133.973 784.136H125.87Z" fill="#929292" stroke="#929292" stroke-width="0.193211"/>
</g>
<path d="M177.062 786.488L181.983 781.566L186.904 786.488H177.062Z" fill="#929292" stroke="#929292" stroke-width="0.966057" stroke-linejoin="round"/>
<path d="M239.391 781.566L234.47 786.488L229.549 781.566L239.391 781.566Z" fill="#929292" stroke="#929292" stroke-width="0.966057" stroke-linejoin="round"/>
<path d="M293.214 779.924C292.997 779.924 292.788 780.01 292.634 780.164C292.48 780.318 292.394 780.526 292.394 780.744V784.025C292.394 784.242 292.307 784.451 292.154 784.605C292 784.758 291.791 784.845 291.574 784.845H283.708L284.774 783.787C284.928 783.632 285.015 783.423 285.015 783.204C285.015 782.986 284.928 782.777 284.774 782.622C284.62 782.468 284.41 782.381 284.192 782.381C283.973 782.381 283.764 782.468 283.609 782.622L281.149 785.083C281.074 785.161 281.015 785.253 280.976 785.353C280.894 785.553 280.894 785.777 280.976 785.977C281.015 786.077 281.074 786.169 281.149 786.247L283.609 788.708C283.686 788.785 283.776 788.846 283.876 788.888C283.976 788.929 284.083 788.951 284.192 788.951C284.3 788.951 284.407 788.929 284.507 788.888C284.607 788.846 284.698 788.785 284.774 788.708C284.851 788.632 284.912 788.541 284.954 788.441C284.995 788.341 285.017 788.234 285.017 788.126C285.017 788.017 284.995 787.91 284.954 787.81C284.912 787.71 284.851 787.62 284.774 787.543L283.708 786.485H291.574C292.226 786.485 292.852 786.226 293.314 785.765C293.775 785.303 294.034 784.677 294.034 784.025V780.744C294.034 780.526 293.948 780.318 293.794 780.164C293.64 780.01 293.432 779.924 293.214 779.924Z" fill="#929292"/>
<path d="M185.316 630.144L181.867 633.64H170.54L167.091 630.144H185.316ZM185.316 662.772H167.091L170.54 659.276H181.867L185.316 662.772ZM169.935 649.301V658.624L166.439 662.12V648.462L167.744 647.111L169.935 649.301ZM166.439 644.5V630.797L169.935 634.293V643.615L167.744 645.806L166.439 644.5ZM185.969 648.462V662.12L182.52 658.624V649.301L184.71 647.111L185.969 648.462ZM182.52 643.615V634.293L185.969 630.797V644.5L184.71 645.806L182.52 643.615ZM182.287 644.733L184.058 646.458L182.287 648.183H170.121L168.396 646.458L170.121 644.733H182.287ZM210.452 630.144L207.003 633.64H195.676L192.227 630.144H210.452ZM210.452 662.772H192.227L195.676 659.276H207.003L210.452 662.772ZM195.07 649.301V658.624L191.574 662.12V648.462L192.879 647.111L195.07 649.301ZM191.574 644.5V630.797L195.07 634.293V643.615L192.879 645.806L191.574 644.5ZM211.104 648.462V662.12L207.655 658.624V649.301L209.846 647.111L211.104 648.462ZM207.655 643.615V634.293L211.104 630.797V644.5L209.846 645.806L207.655 643.615ZM207.422 644.733L209.193 646.458L207.422 648.183H195.256L193.532 646.458L195.256 644.733H207.422ZM216.71 662.772V659.276H220.206V662.772H216.71ZM244.65 630.144L241.201 633.64H229.874L226.425 630.144H244.65ZM244.65 662.772H226.425L229.874 659.276H241.201L244.65 662.772ZM229.268 649.301V658.624L225.773 662.12V648.462L227.078 647.111L229.268 649.301ZM225.773 644.5V630.797L229.268 634.293V643.615L227.078 645.806L225.773 644.5ZM245.303 648.462V662.12L241.853 658.624V649.301L244.044 647.111L245.303 648.462ZM241.853 643.615V634.293L245.303 630.797V644.5L244.044 645.806L241.853 643.615ZM241.62 644.733L243.392 646.458L241.62 648.183H229.455L227.73 646.458L229.455 644.733H241.62ZM269.786 630.144L266.336 633.64H255.01L251.561 630.144H269.786ZM269.786 662.772H251.561L255.01 659.276H266.336L269.786 662.772ZM254.404 649.301V658.624L250.908 662.12V648.462L252.213 647.111L254.404 649.301ZM250.908 644.5V630.797L254.404 634.293V643.615L252.213 645.806L250.908 644.5ZM270.438 648.462V662.12L266.989 658.624V649.301L269.18 647.111L270.438 648.462ZM266.989 643.615V634.293L270.438 630.797V644.5L269.18 645.806L266.989 643.615ZM266.756 644.733L268.527 646.458L266.756 648.183H254.59L252.866 646.458L254.59 644.733H266.756Z" fill="#929292"/>
<path d="M185.316 672.55L181.867 676.046H170.54L167.091 672.55H185.316ZM185.316 705.178H167.091L170.54 701.682H181.867L185.316 705.178ZM169.935 691.707V701.03L166.439 704.525V690.868L167.744 689.517L169.935 691.707ZM166.439 686.906V673.203L169.935 676.698V686.021L167.744 688.211L166.439 686.906ZM185.969 690.868V704.525L182.52 701.03V691.707L184.71 689.517L185.969 690.868ZM182.52 686.021V676.698L185.969 673.203V686.906L184.71 688.211L182.52 686.021ZM182.287 687.139L184.058 688.864L182.287 690.589H170.121L168.396 688.864L170.121 687.139H182.287ZM210.452 672.55L207.003 676.046H195.676L192.227 672.55H210.452ZM210.452 705.178H192.227L195.676 701.682H207.003L210.452 705.178ZM195.07 691.707V701.03L191.574 704.525V690.868L192.879 689.517L195.07 691.707ZM191.574 686.906V673.203L195.07 676.698V686.021L192.879 688.211L191.574 686.906ZM211.104 690.868V704.525L207.655 701.03V691.707L209.846 689.517L211.104 690.868ZM207.655 686.021V676.698L211.104 673.203V686.906L209.846 688.211L207.655 686.021ZM207.422 687.139L209.193 688.864L207.422 690.589H195.256L193.532 688.864L195.256 687.139H207.422ZM216.71 705.178V701.682H220.206V705.178H216.71ZM244.65 672.55L241.201 676.046H229.874L226.425 672.55H244.65ZM244.65 705.178H226.425L229.874 701.682H241.201L244.65 705.178ZM229.268 691.707V701.03L225.773 704.525V690.868L227.078 689.517L229.268 691.707ZM225.773 686.906V673.203L229.268 676.698V686.021L227.078 688.211L225.773 686.906ZM245.303 690.868V704.525L241.853 701.03V691.707L244.044 689.517L245.303 690.868ZM241.853 686.021V676.698L245.303 673.203V686.906L244.044 688.211L241.853 686.021ZM241.62 687.139L243.392 688.864L241.62 690.589H229.455L227.73 688.864L229.455 687.139H241.62ZM269.786 672.55L266.336 676.046H255.01L251.561 672.55H269.786ZM269.786 705.178H251.561L255.01 701.682H266.336L269.786 705.178ZM254.404 691.707V701.03L250.908 704.525V690.868L252.213 689.517L254.404 691.707ZM250.908 686.906V673.203L254.404 676.698V686.021L252.213 688.211L250.908 686.906ZM270.438 690.868V704.525L266.989 701.03V691.707L269.18 689.517L270.438 690.868ZM266.989 686.021V676.698L270.438 673.203V686.906L269.18 688.211L266.989 686.021ZM266.756 687.139L268.527 688.864L266.756 690.589H254.59L252.866 688.864L254.59 687.139H266.756Z" fill="#929292"/>
<path d="M260.681 727.221L259.778 728.157L258.206 726.585V719.895L260.681 717.386V727.221ZM260.213 716.918L257.738 719.427H249.609L247.134 716.918H260.213ZM249.175 726.585L247.602 728.157L246.666 727.221V717.386L249.175 719.895V726.585ZM260.681 739.864L258.206 737.356V730.666L259.778 729.094L260.681 730.064V739.864ZM260.213 740.333H247.134L249.609 737.824H257.738L260.213 740.333ZM249.175 737.356L246.666 739.864V730.064L247.602 729.094L249.175 730.666V737.356ZM278.719 727.221L277.816 728.157L276.244 726.585V719.895L278.719 717.386V727.221ZM278.251 716.918L275.776 719.427H267.647L265.172 716.918H278.251ZM267.212 726.585L265.64 728.157L264.704 727.221V717.386L267.212 719.895V726.585ZM278.719 739.864L276.244 737.356V730.666L277.816 729.094L278.719 730.064V739.864ZM278.251 740.333H265.172L267.647 737.824H275.776L278.251 740.333ZM267.212 737.356L264.704 739.864V730.064L265.64 729.094L267.212 730.666V737.356Z" fill="#929292"/>
<path d="M147.464 680.025L145.431 682.112L143.399 680.025V669.038L145.981 666.457L147.464 668.05V680.025ZM124.448 680.025L126.48 682.112L128.567 680.025V669.038L125.986 666.457L124.448 668.05V680.025ZM129.282 684.914L127.249 682.881L129.282 680.794H142.63L144.662 682.881L142.63 684.914H129.282ZM124.448 663.38V646.462L128.567 650.581V662.337L125.986 664.919L124.448 663.38ZM143.399 662.337V650.581L147.464 646.462V663.38L145.981 664.919L143.399 662.337Z" fill="#929292"/>
<path d="M131.83 589.374V536.02M141.577 589.374V536.02M151.934 589.374V536.02M165.337 589.374V536.02M176.913 589.374V536.02M203.11 589.374V536.02M214.076 589.374V536.02M226.26 589.374V536.02" stroke="#929292" stroke-width="5.79634"/>
<path d="M693.612 556.265H601.823L621.9 610.316H715.278L693.612 556.265Z" fill="white"/>
<path d="M628.589 629.007H722.683L715.278 610.316H621.9L628.589 629.007Z" fill="white"/>
<path d="M628.589 817.767V629.007L621.9 610.316L601.823 556.265V770.287L628.589 817.767Z" fill="white"/>
<path d="M722.683 629.007H628.589V817.767H722.683V629.007Z" fill="white"/>
<path d="M628.589 629.007H722.683M628.589 629.007V817.767M628.589 629.007L621.9 610.316M722.683 629.007V817.767H628.589M722.683 629.007L715.278 610.316M628.589 817.767L601.823 770.287V556.265M601.823 556.265H693.612L715.278 610.316M601.823 556.265L621.9 610.316M621.9 610.316H715.278" stroke="#929292" stroke-width="0.966057"/>
<circle cx="663.005" cy="807.889" r="4.11629" fill="#929292" stroke="#929292" stroke-width="0.966057"/>
<circle cx="649.081" cy="643.962" r="4.11629" fill="#929292" stroke="#929292" stroke-width="0.966057"/>
<circle cx="660.511" cy="643.962" r="4.11629" fill="#929292" stroke="#929292" stroke-width="0.966057"/>
<circle cx="671.942" cy="643.962" r="4.11629" fill="#929292" stroke="#929292" stroke-width="0.966057"/>
<circle cx="683.373" cy="643.962" r="4.11629" fill="#929292" stroke="#929292" stroke-width="0.966057"/>
<circle cx="694.804" cy="643.962" r="4.11629" fill="#929292" stroke="#929292" stroke-width="0.966057"/>
<circle cx="706.235" cy="643.962" r="4.11629" fill="#929292" stroke="#929292" stroke-width="0.966057"/>
<circle cx="677.658" cy="807.889" r="4.11629" fill="#929292" stroke="#929292" stroke-width="0.966057"/>
<circle cx="692.31" cy="807.889" r="4.11629" fill="#929292" stroke="#929292" stroke-width="0.966057"/>
<rect x="637.33" y="659.794" width="76.0216" height="138.69" rx="7.72846" stroke="#929292" stroke-width="0.966057"/>
<rect x="642.143" y="743.613" width="27.1376" height="12.2918" fill="#929292" stroke="#929292" stroke-width="0.966057"/>
<rect x="642.143" y="759.363" width="27.1376" height="31.9237" fill="#929292" stroke="#929292" stroke-width="0.966057"/>
<rect x="673.542" y="743.613" width="36.6053" height="12.2918" fill="#929292" stroke="#929292" stroke-width="0.966057"/>
<rect x="642.539" y="672.574" width="67.6076" height="5.74691" fill="#929292" stroke="#929292" stroke-width="0.966057"/>
<circle cx="655.712" cy="686.622" r="3.51194" fill="#929292" stroke="#929292" stroke-width="0.966057"/>
<circle cx="655.712" cy="714.509" r="3.51194" fill="#929292" stroke="#929292" stroke-width="0.966057"/>
<rect x="672.132" y="681.514" width="38.0146" height="11.0148" fill="#929292" stroke="#929292" stroke-width="0.966057"/>
<rect x="672.132" y="695.982" width="38.0146" height="11.0148" fill="#929292" stroke="#929292" stroke-width="0.966057"/>
<rect x="672.132" y="710.45" width="38.0146" height="11.0148" fill="#929292" stroke="#929292" stroke-width="0.966057"/>
<rect x="641.888" y="729.139" width="68.2588" height="11.0148" fill="#929292" stroke="#929292" stroke-width="0.966057"/>
<path d="M566.645 629.154H616.829V817.539H566.645V629.154Z" fill="white"/>
<path d="M566.645 817.539V629.154L560.756 609.929L542.959 556.01V767.505L566.645 817.539Z" fill="white"/>
<path d="M566.645 629.154H616.829L611.053 609.929H560.756L566.645 629.154Z" fill="white"/>
<path d="M593.433 556.01H542.959L560.756 609.929H611.053L593.433 556.01Z" fill="white"/>
<path d="M566.645 629.154H616.829M566.645 629.154V817.539M566.645 629.154L560.756 609.929M616.829 629.154V817.539H566.645M616.829 629.154L611.053 609.929M566.645 817.539L542.959 767.505V556.01M542.959 556.01H593.433L611.053 609.929M542.959 556.01L560.756 609.929M560.756 609.929H611.053" stroke="#929292" stroke-width="0.966057"/>
<circle cx="590.04" cy="710.45" r="4.11629" fill="#929292"/>
<circle cx="591.738" cy="686.385" r="4.11629" fill="#929292"/>
<circle cx="577.763" cy="807.659" r="4.11629" fill="#929292"/>
<circle cx="577.763" cy="643.232" r="4.11629" fill="#929292"/>
<circle cx="592.416" cy="807.659" r="4.11629" fill="#929292"/>
<circle cx="592.416" cy="643.232" r="4.11629" fill="#929292"/>
<circle cx="607.068" cy="807.659" r="4.11629" fill="#929292"/>
<circle cx="607.068" cy="643.232" r="4.11629" fill="#929292"/>
<rect x="575.87" y="660.048" width="31.7352" height="137.724" rx="7.24543" stroke="#929292" stroke-width="0.966057"/>
<rect x="579.503" y="748.815" width="24.4687" height="14.8023" fill="#929292"/>
<rect x="583.26" y="672.466" width="16.9562" height="5.79116" fill="#929292"/>
<rect x="583.26" y="692.914" width="16.9562" height="5.79116" fill="#929292"/>
<rect x="583.26" y="720.865" width="16.9562" height="5.79116" fill="#929292"/>
<rect x="580.94" y="767.629" width="23.0317" height="5.79116" fill="#929292"/>
<rect x="587.641" y="775.833" width="16.331" height="5.79116" fill="#929292"/>
<rect x="584.154" y="784.037" width="19.8177" height="5.79116" fill="#929292"/>
<path d="M509.388 629.154H559.572V817.539H509.388V629.154Z" fill="white"/>
<path d="M509.388 817.539V629.154L503.479 609.793L485.702 556.01V767.505L509.388 817.539Z" fill="white"/>
<path d="M509.388 629.154H559.572L553.776 609.793H503.479L509.388 629.154Z" fill="white"/>
<path d="M536.176 556.01H485.702L503.479 609.793H553.776L536.176 556.01Z" fill="white"/>
<path d="M509.388 629.154H559.572M509.388 629.154V817.539M509.388 629.154L503.479 609.793M559.572 629.154V817.539H509.388M559.572 629.154L553.776 609.793M509.388 817.539L485.702 767.505V556.01M485.702 556.01H536.176L553.776 609.793M485.702 556.01L503.479 609.793M503.479 609.793H553.776" stroke="#929292" stroke-width="0.966057"/>
<circle cx="532.783" cy="710.45" r="4.11629" fill="#929292"/>
<circle cx="534.481" cy="686.385" r="4.11629" fill="#929292"/>
<circle cx="520.506" cy="807.659" r="4.11629" fill="#929292"/>
<circle cx="520.506" cy="643.232" r="4.11629" fill="#929292"/>
<circle cx="535.159" cy="807.659" r="4.11629" fill="#929292"/>
<circle cx="535.159" cy="643.232" r="4.11629" fill="#929292"/>
<circle cx="549.811" cy="807.659" r="4.11629" fill="#929292"/>
<circle cx="549.811" cy="643.232" r="4.11629" fill="#929292"/>
<rect x="518.613" y="660.048" width="31.7352" height="137.724" rx="7.24543" stroke="#929292" stroke-width="0.966057"/>
<rect x="522.246" y="748.815" width="24.4687" height="14.8023" fill="#929292"/>
<rect x="526.003" y="672.466" width="16.9562" height="5.79116" fill="#929292"/>
<rect x="526.003" y="692.914" width="16.9562" height="5.79116" fill="#929292"/>
<rect x="526.003" y="720.865" width="16.9562" height="5.79116" fill="#929292"/>
<rect x="523.683" y="767.629" width="23.0317" height="5.79116" fill="#929292"/>
<rect x="530.384" y="775.833" width="16.331" height="5.79116" fill="#929292"/>
<rect x="526.897" y="784.037" width="19.8177" height="5.79116" fill="#929292"/>
<path d="M399.599 730.327H497.854V648.083H399.599V730.327Z" fill="white"/>
<path d="M490.454 585.809H392.774V748.457V776.075H490.454V748.457V730.327H497.854H399.599V648.083L392.774 634.797L490.454 634.156V585.809Z" fill="white"/>
<path d="M490.454 634.156L392.774 634.797L399.599 648.083H497.854L490.454 634.156Z" fill="white"/>
<path d="M392.774 585.809H490.454L477.999 556.024H383.168L392.774 585.809Z" fill="white"/>
<path d="M392.774 776.075V748.457V714.561V634.797V585.809L383.168 556.024V741.325L392.774 776.075Z" fill="white"/>
<path d="M392.774 585.809H490.454M392.774 585.809L383.168 556.024M392.774 585.809V634.797M392.774 585.809V748.457M490.454 585.809V634.156M490.454 585.809L477.999 556.024H383.168M392.774 776.075H490.454V748.457M392.774 776.075L383.168 741.325V556.024M392.774 776.075V748.457M490.454 748.457V730.327H497.854M490.454 748.457H392.774M392.774 714.561L399.599 730.327M392.774 714.561V634.797M392.774 714.561V748.457M497.854 730.327V648.083M497.854 730.327H399.599M392.774 634.797L490.454 634.156M392.774 634.797L399.599 648.083M490.454 634.156L497.854 648.083M399.599 648.083H497.854M399.599 648.083V730.327" stroke="#929292" stroke-width="0.966057"/>
<circle cx="417.104" cy="607.669" r="8.18849" stroke="#929292" stroke-width="0.966057"/>
<circle cx="417.104" cy="762.239" r="8.18849" stroke="#929292" stroke-width="0.966057"/>
<circle cx="460.005" cy="607.669" r="8.18849" stroke="#929292" stroke-width="0.966057"/>
<circle cx="460.005" cy="762.239" r="8.18849" stroke="#929292" stroke-width="0.966057"/>
<path d="M407.796 678.625H489.226M407.796 678.625V699.849M407.796 678.625L405.715 675.573M489.226 678.625L485.48 675.573H405.715M489.226 678.625V697.352M489.226 699.849H480.07M489.226 699.849H491.584M489.226 699.849V697.352M407.796 699.849L405.715 697.352M407.796 699.849V719.131M407.796 699.849H414.455M405.715 675.573V697.352M405.715 697.352V716.773L407.796 719.131M407.796 719.131H414.455V712.75M414.455 699.849V712.75M414.455 699.849H436.928M414.455 712.75H433.043M436.928 712.75V699.849M436.928 712.75H433.043M436.928 712.75V719.131M436.928 699.849H458.291M433.043 712.75V715.247L436.928 719.131M436.928 719.131H458.291V713.446M458.291 699.849V713.446M458.291 699.849H480.07M458.291 713.446H477.712M480.07 715.247V699.849M480.07 715.247L477.712 713.446M480.07 715.247V719.131M480.07 719.131L477.712 716.773V713.446M480.07 719.131H491.584V699.849M491.584 699.849L489.226 697.352" stroke="#929292" stroke-width="0.966057"/>
<rect x="406.198" y="664.431" width="40.8745" height="7.63818" fill="#929292" stroke="#929292" stroke-width="0.966057"/>
<path d="M414.405 580.887V536.02" stroke="#929292" stroke-width="4.83029"/>
<path d="M458.462 580.887V536.02" stroke="#929292" stroke-width="4.83029"/>
<path d="M518.789 624.617V536.08" stroke="#929292" stroke-width="4.83029"/>
<path d="M530.815 624.617V536.08" stroke="#929292" stroke-width="4.83029"/>
<path d="M575.547 624.617V536.08" stroke="#929292" stroke-width="4.83029"/>
<path d="M587.609 624.617V536.08" stroke="#929292" stroke-width="4.83029"/>
<path d="M637.87 625.694V536.08" stroke="#929292" stroke-width="4.83029"/>
<path d="M662.452 625.694V536.08" stroke="#929292" stroke-width="4.83029"/>
<path d="M352.932 318.709H348.645V315.835C348.645 314.999 348.597 314.479 348.502 314.275C348.414 314.065 348.214 313.959 347.901 313.959C347.548 313.959 347.324 314.085 347.229 314.336C347.134 314.588 347.086 315.131 347.086 315.967V323.632C347.086 324.434 347.134 324.957 347.229 325.202C347.324 325.446 347.538 325.569 347.87 325.569C348.189 325.569 348.397 325.446 348.492 325.202C348.594 324.957 348.645 324.383 348.645 323.479V321.41H352.932V322.052C352.932 323.758 352.81 324.967 352.565 325.681C352.328 326.394 351.795 327.019 350.967 327.556C350.145 328.093 349.13 328.361 347.921 328.361C346.665 328.361 345.63 328.134 344.815 327.679C344 327.223 343.46 326.594 343.196 325.793C342.931 324.984 342.798 323.771 342.798 322.154V317.333C342.798 316.144 342.839 315.254 342.921 314.663C343.002 314.065 343.243 313.49 343.644 312.94C344.051 312.39 344.611 311.958 345.324 311.646C346.044 311.326 346.869 311.167 347.799 311.167C349.062 311.167 350.105 311.411 350.926 311.9C351.748 312.39 352.287 313.001 352.546 313.735C352.803 314.462 352.932 315.597 352.932 317.139V318.709Z" fill="#929292"/>
<path d="M364.329 311.512V328.013H360.041V321.082H358.758V328.013H354.47V311.512H358.758V317.413H360.041V311.512H364.329Z" fill="#929292"/>
<path d="M370.348 311.512V328.013H366.06V311.512H370.348Z" fill="#929292"/>
<path d="M381.817 311.512V322.54C381.817 323.79 381.776 324.67 381.694 325.18C381.613 325.683 381.372 326.203 380.971 326.74C380.571 327.269 380.041 327.674 379.383 327.952C378.73 328.224 377.96 328.36 377.07 328.36C376.086 328.36 375.217 328.197 374.463 327.871C373.71 327.544 373.146 327.12 372.772 326.597C372.399 326.074 372.178 325.523 372.11 324.946C372.043 324.361 372.009 323.138 372.009 321.276V311.512H376.296V323.886C376.296 324.606 376.334 325.068 376.408 325.271C376.49 325.469 376.649 325.567 376.887 325.567C377.159 325.567 377.332 325.459 377.407 325.241C377.488 325.017 377.529 324.494 377.529 323.671V311.512H381.817Z" fill="#929292"/>
<path d="M435.162 318.709H430.868V315.835C430.868 314.999 430.821 314.479 430.725 314.275C430.637 314.065 430.436 313.959 430.124 313.959C429.77 313.959 429.546 314.085 429.451 314.336C429.356 314.588 429.308 315.131 429.308 315.967V323.632C429.308 324.434 429.356 324.957 429.451 325.202C429.546 325.446 429.76 325.569 430.093 325.569C430.413 325.569 430.62 325.446 430.715 325.202C430.817 324.957 430.868 324.383 430.868 323.479V321.41H435.162V322.052C435.162 323.758 435.04 324.967 434.795 325.681C434.557 326.394 434.023 327.019 433.194 327.556C432.371 328.093 431.354 328.361 430.144 328.361C428.886 328.361 427.849 328.134 427.034 327.679C426.217 327.223 425.677 326.594 425.412 325.793C425.146 324.984 425.014 323.771 425.014 322.154V317.333C425.014 316.144 425.055 315.254 425.136 314.663C425.218 314.065 425.459 313.49 425.86 312.94C426.269 312.39 426.829 311.958 427.543 311.646C428.264 311.326 429.09 311.167 430.022 311.167C431.287 311.167 432.33 311.411 433.153 311.9C433.976 312.39 434.516 313.001 434.774 313.735C435.033 314.462 435.162 315.597 435.162 317.139V318.709Z" fill="#929292"/>
<path d="M446.575 311.512V328.013H442.282V321.082H440.996V328.013H436.702V311.512H440.996V317.413H442.282V311.512H446.575Z" fill="#929292"/>
<path d="M455.725 311.512L458.184 328.013H453.787L453.573 325.047H452.033L451.778 328.013H447.331L449.514 311.512H455.725ZM453.451 322.122C453.233 320.254 453.016 317.947 452.798 315.201C452.363 318.354 452.091 320.661 451.982 322.122H453.451Z" fill="#929292"/>
<path d="M468.677 311.512V322.54C468.677 323.79 468.637 324.67 468.555 325.18C468.474 325.683 468.232 326.203 467.831 326.74C467.43 327.269 466.899 327.674 466.24 327.952C465.587 328.224 464.815 328.36 463.925 328.36C462.939 328.36 462.069 328.197 461.314 327.871C460.559 327.544 459.995 327.12 459.621 326.597C459.247 326.074 459.026 325.523 458.958 324.946C458.889 324.361 458.856 323.138 458.856 321.276V311.512H463.149V323.886C463.149 324.606 463.187 325.068 463.262 325.271C463.343 325.469 463.503 325.567 463.741 325.567C464.013 325.567 464.186 325.459 464.261 325.241C464.343 325.017 464.384 324.494 464.384 323.671V311.512H468.677Z" fill="#929292"/>
<path d="M304.012 352.526V342.535L340.708 287.465H349.069L359.752 302.569H349.069L345.12 296.063L314.463 342.535H376.242L370.9 334.635H381.351L385.764 342.535L423.853 287.465H432.679L442.433 302.569H432.679L428.266 296.063L397.144 342.535H458.458L453.117 334.635H463.336L468.445 342.535V352.526H304.012Z" fill="#929292"/>
<path d="M325.392 359.73H304.244V364.48H325.392V359.73Z" fill="#929292"/>
<path d="M325.392 367.933H304.244V372.683H325.392V367.933Z" fill="#929292"/>
<path d="M325.392 376.138H304.244V380.888H325.392V376.138Z" fill="#929292"/>
<path d="M468.677 359.73H447.53V364.48H468.677V359.73Z" fill="#929292"/>
<path d="M468.677 367.933H447.53V372.683H468.677V367.933Z" fill="#929292"/>
<path d="M468.677 376.138H447.53V380.888H468.677V376.138Z" fill="#929292"/>
<path d="M343.746 367.224H348.083C347.95 366.054 347.627 365.015 347.113 364.109C346.599 363.203 345.943 362.447 345.144 361.843C344.364 361.22 343.47 360.747 342.461 360.427C341.472 360.106 340.416 359.945 339.294 359.945C337.734 359.945 336.326 360.219 335.07 360.767C333.833 361.314 332.787 362.07 331.931 363.032C331.075 363.995 330.419 365.128 329.962 366.431C329.505 367.715 329.277 369.112 329.277 370.623C329.277 372.096 329.505 373.474 329.962 374.758C330.419 376.023 331.075 377.128 331.931 378.072C332.787 379.016 333.833 379.762 335.07 380.31C336.326 380.838 337.734 381.103 339.294 381.103C340.55 381.103 341.701 380.914 342.747 380.536C343.793 380.159 344.706 379.611 345.486 378.893C346.266 378.176 346.894 377.307 347.37 376.288C347.846 375.268 348.14 374.126 348.255 372.861H343.917C343.746 374.22 343.27 375.316 342.49 376.146C341.729 376.977 340.663 377.392 339.294 377.392C338.286 377.392 337.429 377.204 336.725 376.826C336.022 376.43 335.451 375.91 335.013 375.268C334.576 374.626 334.252 373.909 334.043 373.116C333.852 372.304 333.758 371.473 333.758 370.623C333.758 369.736 333.852 368.876 334.043 368.045C334.252 367.215 334.576 366.478 335.013 365.837C335.451 365.176 336.022 364.656 336.725 364.279C337.429 363.882 338.286 363.684 339.294 363.684C339.845 363.684 340.368 363.778 340.863 363.967C341.377 364.137 341.833 364.383 342.233 364.704C342.632 365.024 342.965 365.402 343.232 365.837C343.498 366.252 343.67 366.714 343.746 367.224Z" fill="#929292"/>
<path d="M351.056 376.288V380.65H355.537V376.288H351.056Z" fill="#929292"/>
<path d="M372.841 367.224H377.179C377.045 366.054 376.722 365.015 376.208 364.109C375.695 363.203 375.038 362.447 374.239 361.843C373.46 361.22 372.565 360.747 371.557 360.427C370.568 360.106 369.512 359.945 368.389 359.945C366.829 359.945 365.421 360.219 364.166 360.767C362.929 361.314 361.883 362.07 361.027 363.032C360.171 363.995 359.514 365.128 359.057 366.431C358.601 367.715 358.373 369.112 358.373 370.623C358.373 372.096 358.601 373.474 359.057 374.758C359.514 376.023 360.171 377.128 361.027 378.072C361.883 379.016 362.929 379.762 364.166 380.31C365.421 380.838 366.829 381.103 368.389 381.103C369.645 381.103 370.796 380.914 371.842 380.536C372.889 380.159 373.802 379.611 374.582 378.893C375.362 378.176 375.99 377.307 376.465 376.288C376.941 375.268 377.236 374.126 377.35 372.861H373.012C372.841 374.22 372.366 375.316 371.585 376.146C370.824 376.977 369.759 377.392 368.389 377.392C367.381 377.392 366.525 377.204 365.821 376.826C365.117 376.43 364.546 375.91 364.109 375.268C363.671 374.626 363.348 373.909 363.138 373.116C362.948 372.304 362.853 371.473 362.853 370.623C362.853 369.736 362.948 368.876 363.138 368.045C363.348 367.215 363.671 366.478 364.109 365.837C364.546 365.176 365.117 364.656 365.821 364.279C366.525 363.882 367.381 363.684 368.389 363.684C368.941 363.684 369.464 363.778 369.959 363.967C370.472 364.137 370.929 364.383 371.328 364.704C371.728 365.024 372.061 365.402 372.328 365.837C372.594 366.252 372.765 366.714 372.841 367.224Z" fill="#929292"/>
<path d="M380.152 376.288V380.65H384.632V376.288H380.152Z" fill="#929292"/>
<path d="M391.546 360.428V380.651H396.026V372.295H404.559V368.84H396.026V364.167H405.872V360.428H391.546Z" fill="#929292"/>
<path d="M412.039 372.834L414.693 365.412H414.75L417.318 372.834H412.039ZM412.467 360.428L404.762 380.651H409.271L410.869 376.147H418.488L420.029 380.651H424.681L417.061 360.428H412.467Z" fill="#929292"/>
<path d="M426.438 360.428V380.651H430.633V367.112H430.69L439.165 380.651H443.646V360.428H439.451V373.994H439.394L430.89 360.428H426.438Z" fill="#929292"/>
<defs>
<clipPath id="clip0_0_4">
<rect width="13.1234" height="13.1234" fill="white" transform="translate(123.516 777.875)"/>
</clipPath>
</defs>
</svg>
